<svg width="512" height="512" viewBox="0 0 512 512" xmlns="http://www.w3.org/2000/svg">
  <defs>
    <linearGradient id="bg" x1="0" y1="0" x2="1" y2="1">
      <stop offset="0" stop-color="#2E2758"/><stop offset="0.5" stop-color="#1C1D3C"/><stop offset="1" stop-color="#101127"/>
    </linearGradient>
    <radialGradient id="glow" cx="0.5" cy="0.1" r="0.9">
      <stop offset="0" stop-color="#8B72FF" stop-opacity="0.5"/><stop offset="0.6" stop-color="#8B72FF" stop-opacity="0"/>
    </radialGradient>
    <linearGradient id="vio" x1="0.1" y1="0" x2="0.9" y2="1">
      <stop offset="0" stop-color="#CBBEFF"/><stop offset="0.5" stop-color="#8B72FF"/><stop offset="1" stop-color="#5B3FD1"/>
    </linearGradient>
    <linearGradient id="bub" x1="0" y1="0" x2="1" y2="1">
      <stop offset="0" stop-color="#C6B8FF"/><stop offset="1" stop-color="#7A5CE0"/>
    </linearGradient>
    <filter id="dp" x="-40%" y="-40%" width="180%" height="180%">
      <feDropShadow dx="0" dy="9" stdDeviation="14" flood-color="#3A2699" flood-opacity="0.5"/>
    </filter>
  </defs>

  <rect width="512" height="512" fill="url(#bg)"/>
  <rect width="512" height="512" fill="url(#glow)"/>

  <circle cx="256" cy="256" r="190" fill="none" stroke="url(#vio)" stroke-width="19"/>

  <g fill="url(#vio)" filter="url(#dp)">
    <path d="M256 124 L368 192 L144 192 Z"/>
    <rect x="150" y="352" width="212" height="26" rx="6"/>
    <rect x="171" y="210" width="28" height="138" rx="5"/>
    <rect x="242" y="210" width="28" height="138" rx="5"/>
    <rect x="313" y="210" width="28" height="138" rx="5"/>
  </g>

  <circle cx="338" cy="206" r="97" fill="#1C1D3C"/>
  <path d="M282 262 l-18 46 l50 -26 Z" fill="#1C1D3C"/>

  <g filter="url(#dp)">
    <circle cx="338" cy="206" r="86" fill="url(#bub)"/>
    <path d="M288 258 l-14 38 l40 -20 Z" fill="url(#bub)"/>
    <text x="338" y="206" font-family="DejaVu Sans, Arial, sans-serif" font-size="130" font-weight="bold"
          fill="#15172E" text-anchor="middle" dominant-baseline="central">$</text>
  </g>
</svg>
